<?xml version="1.0" encoding="UTF-8" standalone="no"?>
<svg
   width="16"
   height="16"
   version="1"
   id="svg6"
   sodipodi:docname="nwg-readme-browser.svg"
   inkscape:version="1.3.2 (091e20ef0f, 2023-11-25, custom)"
   xmlns:inkscape="http://www.inkscape.org/namespaces/inkscape"
   xmlns:sodipodi="http://sodipodi.sourceforge.net/DTD/sodipodi-0.dtd"
   xmlns="http://www.w3.org/2000/svg"
   xmlns:svg="http://www.w3.org/2000/svg">
  <defs
     id="defs6" />
  <sodipodi:namedview
     id="namedview6"
     pagecolor="#ffffff"
     bordercolor="#666666"
     borderopacity="1.0"
     inkscape:showpageshadow="2"
     inkscape:pageopacity="0.0"
     inkscape:pagecheckerboard="0"
     inkscape:deskcolor="#d1d1d1"
     inkscape:zoom="38.030983"
     inkscape:cx="9.452819"
     inkscape:cy="8.2432789"
     inkscape:window-width="1912"
     inkscape:window-height="1012"
     inkscape:window-x="0"
     inkscape:window-y="0"
     inkscape:window-maximized="1"
     inkscape:current-layer="svg6"
     showgrid="false"
     showguides="true">
    <sodipodi:guide
       position="-2.6031407,15"
       orientation="0,1"
       id="guide1"
       inkscape:locked="false"
       inkscape:label=""
       inkscape:color="rgb(0,134,229)" />
  </sodipodi:namedview>
  <path
     fill="#e4e4e4"
     d="M 2.788065,1 C 2.3761597,1 2.0445536,1.3122 2.0445536,1.6999999 V 14.3 c 0,0.387799 0.3316061,0.7 0.7435114,0.7 h 10.409159 c 0.411907,0 0.743513,-0.312202 0.743513,-0.7 V 5.1999996 l -4.0893132,-0.35 L 9.4796676,1 Z"
     id="path2"
     style="fill:#00aad4;fill-opacity:1;stroke-width:0.360714" />
  <path
     style="opacity:0.2;stroke-width:0.360714"
     d="m 9.4796676,1.3499999 v 3.4999997 c 0,0.3866099 0.3328816,0.6999999 0.7435114,0.6999999 h 3.717558 z"
     id="path4" />
  <path
     fill="#fafafa"
     d="m 9.4796676,1 v 3.4999996 c 0,0.38661 0.3328816,0.7 0.7435114,0.7 h 3.717558 z"
     id="path5"
     style="fill:#6ae3ff;fill-opacity:1;stroke-width:0.360714" />
  <path
     style="fill:#0088aa;fill-opacity:1;stroke-width:0.433996"
     d="M 7.2818426,6.3034121 V 11.354345 H 8.7361824 V 6.3034121 Z m 0,6.2165339 v 1.165599 h 1.4543398 v -1.165599 z"
     id="path6-3" />
  <path
     style="fill:#ff8000;fill-opacity:1;stroke-width:0.433996"
     d="M 7.0795973,6.0819186 V 11.132852 H 8.5339371 V 6.0819186 Z m 0,6.2165344 v 1.165599 h 1.4543398 v -1.165599 z"
     id="path6" />
</svg>
